<svg width="73" height="72" viewBox="0 0 73 72" fill="white" xmlns="http://www.w3.org/2000/svg">
    <path
        d="M20.1863 0C9.14228 0 0.186279 8.956 0.186279 20V52C0.186279 63.044 9.14228 72 20.1863 72H52.1863C63.2303 72 72.1863 63.044 72.1863 52V20C72.1863 8.956 63.2303 0 52.1863 0H20.1863ZM60.1863 8C62.3943 8 64.1863 9.792 64.1863 12C64.1863 14.208 62.3943 16 60.1863 16C57.9783 16 56.1863 14.208 56.1863 12C56.1863 9.792 57.9783 8 60.1863 8ZM36.1863 16C47.2303 16 56.1863 24.956 56.1863 36C56.1863 47.044 47.2303 56 36.1863 56C25.1423 56 16.1863 47.044 16.1863 36C16.1863 24.956 25.1423 16 36.1863 16ZM36.1863 24C33.0037 24 29.9514 25.2643 27.701 27.5147C25.4506 29.7652 24.1863 32.8174 24.1863 36C24.1863 39.1826 25.4506 42.2348 27.701 44.4853C29.9514 46.7357 33.0037 48 36.1863 48C39.3689 48 42.4211 46.7357 44.6716 44.4853C46.922 42.2348 48.1863 39.1826 48.1863 36C48.1863 32.8174 46.922 29.7652 44.6716 27.5147C42.4211 25.2643 39.3689 24 36.1863 24Z"
        fill="white" />
</svg>